<?xml version="1.0" encoding="utf-8"?>
<!-- Generator: Adobe Illustrator 22.1.0, SVG Export Plug-In . SVG Version: 6.00 Build 0)  -->
<svg version="1.1" id="Layer_1" xmlns="http://www.w3.org/2000/svg" xmlns:xlink="http://www.w3.org/1999/xlink" x="0px" y="0px"
	 viewBox="0 0 216 216" style="enable-background:new 0 0 216 216;" xml:space="preserve">
<style type="text/css">
	.st0{fill:#FFFFFF;}
</style>
<g>
	<g>
		<path class="st0" d="M106.6,80.5c-2.4-1.3-2.6-1.2-5.4,0.4c-30.2,16-32.6,35.8-33.7,47c-1,11.1-0.2,9.6,4.3,17.5
			c7.1,13,18.3,28.9,18.3,28.9c2.4,3.4,15.9,2.1,23.3,2.3s10.7-0.2,12.6-2.3c2.7-3.3,6.2-8.5,13-20.7c6.7-12.2,12.2-20.3,12.2-20.3
			c-0.7-11.7-9.1-25.5-17.8-34.2S109,81.8,106.6,80.5z M99.3,131.7c0,1.3-1,2.3-2.3,2.3H82.5c-1.3,0-2.3-1-2.3-2.3l0,0
			c0-1.3,1-2.3,2.3-2.3H97C98.3,129.4,99.3,130.4,99.3,131.7L99.3,131.7z M134.2,131.7L134.2,131.7c0,1.3-1,2.3-2.3,2.3h-14
			c-1.3,0-2.3-1-2.3-2.3l0,0c0-1.3,1-2.3,2.3-2.3h14C133.2,129.4,134.2,130.4,134.2,131.7z"/>
		<path class="st0" d="M103.8,74c34.5-16.6,62-6.6,62-6.6c-8.6-28-35.1-45.1-72.8-38.8S43.5,73.9,44.9,92.5S62,130.2,62,130.2
			C65.5,107.1,71.8,89.7,103.8,74z"/>
		<path class="st0" d="M165.8,72.7c-3.5-1.2-27.1-8.9-56.3,4c0,0,14.8,7.7,23.7,15.6s21,25.3,21.8,35.4c0,0,14.4-16.3,14.6-32
			C169.7,79.9,169.3,73.9,165.8,72.7z"/>
		<path class="st0" d="M106.3,185.2c10.3,0,14.4-1.6,17.5-3.2l-1.7-3.2c0,0-1.7,0.6-6,0.6s-14.5,0-17.8,0s-4.8-0.2-5.8-0.6
			c0,0-0.3,1-0.7,1.7c-0.4,0.7-1.3,1.2-0.5,1.8C92,183.1,95.9,185.2,106.3,185.2z"/>
		<path class="st0" d="M93.4,190.4c2.7,0.5,14.2,3.4,28.8-1.3c1.6-0.5,1.8-1.2,1.1-2.4c-0.7-1.1-1.2-1.7-1.2-1.7s-5.2,2.7-13.6,2.7
			s-14.2-1.5-16.2-2.7c0,0-0.6,1.8-1.5,2.9C89.9,189.1,90.7,189.8,93.4,190.4z"/>
		<path class="st0" d="M107.4,193.6c-8.2,0-11.6-0.6-15.2-1.6c0,0-0.2,1.5-0.9,2.2c-0.7,0.7-1.4,1.5,0.9,2.1s5.5,1.2,15.1,1.2
			s12.6,0,15.2-0.8c2.5-0.7,1.6-1.8,0.8-3c-0.8-1.1,0.1-2.5,0.8-3.5C121.7,191.4,115.6,193.6,107.4,193.6z"/>
		<path class="st0" d="M98.3,199.9c-2.4,0-4.5-0.7-6.5-1.6c0,0,5.2,6.4,6.3,7.4c1.1,1,1.6,1.2,6.1,1.2s7.4,0,9.7,0s2.1-0.1,4.5-2.7
			c2.4-2.6,4.2-5.3,4.2-5.3s-1.4,1-4.9,1C114.1,199.9,100.8,199.9,98.3,199.9z"/>
		<path class="st0" d="M103.8,211.1c0.6,0.6,0.3,1.3,0.3,1.3h6.7c0,0-0.3-0.8,0.6-1.6c1-0.8,1.9-1.6,1.9-1.6h-11.7
			C101.7,209.2,103.3,210.5,103.8,211.1z"/>
		<path class="st0" d="M41.5,36l12.6,9.8c0.4,0.3,0.9,0.5,1.4,0.5c0.7,0,1.3-0.3,1.8-0.9c0.8-1,0.6-2.4-0.4-3.2l-12.6-9.8
			c-1-0.8-2.4-0.6-3.2,0.4C40.3,33.8,40.5,35.2,41.5,36z"/>
		<path class="st0" d="M107.8,23.4c1.3,0,2.3-1,2.3-2.3V5.9c0-1.3-1-2.3-2.3-2.3s-2.3,1-2.3,2.3v15.3
			C105.5,22.4,106.5,23.4,107.8,23.4z"/>
		<path class="st0" d="M159.9,46.5c0.5,0,1-0.2,1.4-0.5l13.2-10.4c1-0.8,1.2-2.2,0.4-3.2s-2.2-1.2-3.2-0.4l-13.2,10.4
			c-1,0.8-1.2,2.2-0.4,3.2C158.6,46.2,159.3,46.5,159.9,46.5z"/>
		<path class="st0" d="M192.7,92.6h-16.6c-1.3,0-2.3,1-2.3,2.3s1,2.3,2.3,2.3h16.6c1.3,0,2.3-1,2.3-2.3S193.9,92.6,192.7,92.6z"/>
		<path class="st0" d="M174.4,141.2L161.3,131c-1-0.8-2.4-0.6-3.2,0.4s-0.6,2.4,0.4,3.2l13.1,10.2c0.4,0.3,0.9,0.5,1.4,0.5
			c0.7,0,1.3-0.3,1.8-0.9C175.6,143.4,175.4,141.9,174.4,141.2z"/>
		<path class="st0" d="M42.3,94.8c0-1.3-1-2.3-2.3-2.3H23.3c-1.3,0-2.3,1-2.3,2.3s1,2.3,2.3,2.3H40C41.3,97,42.3,96,42.3,94.8z"/>
		<path class="st0" d="M54.7,130.7l-13.6,10.7c-1,0.8-1.2,2.2-0.4,3.2c0.4,0.6,1.1,0.9,1.8,0.9c0.5,0,1-0.2,1.4-0.5l13.6-10.7
			c1-0.8,1.2-2.2,0.4-3.2C57.2,130.1,55.7,129.9,54.7,130.7z"/>
	</g>
</g>
</svg>
